<svg width="19" height="12" viewBox="0 0 19 12" fill="none" xmlns="http://www.w3.org/2000/svg">
<path fill-rule="evenodd" clip-rule="evenodd" d="M1.96512 1.13483C1.86905 1.03875 1.75499 0.96254 1.62946 0.910544C1.50393 0.858549 1.36939 0.831787 1.23352 0.831787C1.09765 0.831787 0.963111 0.858549 0.837583 0.910544C0.712054 0.96254 0.597997 1.03875 0.501921 1.13483C0.405846 1.2309 0.329636 1.34496 0.27764 1.47049C0.225645 1.59601 0.198883 1.73055 0.198883 1.86643C0.198883 2.0023 0.225645 2.13684 0.27764 2.26236C0.329636 2.38789 0.405846 2.50195 0.501921 2.59803L8.76859 10.8647C8.86457 10.9609 8.97861 11.0373 9.10415 11.0894C9.22969 11.1415 9.36427 11.1683 9.50019 11.1683C9.63611 11.1683 9.77069 11.1415 9.89623 11.0894C10.0218 11.0373 10.1358 10.9609 10.2318 10.8647L18.4985 2.59803C18.6925 2.40399 18.8015 2.14083 18.8015 1.86643C18.8015 1.59202 18.6925 1.32886 18.4985 1.13483C18.3044 0.940793 18.0413 0.831787 17.7669 0.831787C17.4925 0.831787 17.2293 0.940793 17.0353 1.13483L9.50019 8.67196L1.96512 1.13483Z" fill="#1D1D1D"/>
</svg>
