<svg width="115" height="30" viewBox="0 0 115 30" fill="none" xmlns="http://www.w3.org/2000/svg">
<path d="M39.473 11.58C39.473 11.4467 39.4996 11.3467 39.553 11.28C39.6196 11.2 39.7063 11.16 39.813 11.16H43.173C43.3996 11.16 43.513 11.2867 43.513 11.54V22.8C43.513 22.8934 43.5263 22.96 43.553 23C43.593 23.04 43.653 23.06 43.733 23.06H49.933C50.213 23.06 50.353 23.1734 50.353 23.4V25.6C50.353 25.72 50.313 25.82 50.233 25.9C50.153 25.9667 50.0396 26 49.893 26H39.953C39.7663 26 39.6396 25.9667 39.573 25.9C39.5063 25.82 39.473 25.7 39.473 25.54V11.58Z" fill="#242424"/>
<path d="M61.9978 16.2C60.5711 16.2 59.3245 15.8934 58.2578 15.28C57.2045 14.6667 56.3911 13.7934 55.8178 12.66C55.2445 11.5134 54.9578 10.1667 54.9578 8.62002C54.9578 7.07336 55.2445 5.72669 55.8178 4.58002C56.4045 3.42002 57.2245 2.52669 58.2778 1.90002C59.3445 1.27336 60.5845 0.960022 61.9978 0.960022C63.3978 0.960022 64.6245 1.27336 65.6778 1.90002C66.7445 2.52669 67.5645 3.42002 68.1378 4.58002C68.7245 5.72669 69.0178 7.07336 69.0178 8.62002C69.0178 10.1534 68.7311 11.4934 68.1578 12.64C67.5845 13.7734 66.7645 14.6534 65.6978 15.28C64.6445 15.8934 63.4111 16.2 61.9978 16.2ZM62.0178 13.4C62.9911 13.4 63.6911 13.0334 64.1178 12.3C64.5578 11.5667 64.7778 10.36 64.7778 8.68002C64.7778 6.94669 64.5511 5.69336 64.0978 4.92002C63.6578 4.13336 62.9578 3.74002 61.9978 3.74002C61.0245 3.74002 60.3111 4.13336 59.8578 4.92002C59.4178 5.69336 59.1978 6.94669 59.1978 8.68002C59.1978 10.36 59.4178 11.5667 59.8578 12.3C60.2978 13.0334 61.0178 13.4 62.0178 13.4Z" fill="#242424"/>
<path d="M83.8447 26.2C82.4847 26.2 81.2847 25.8867 80.2447 25.26C79.218 24.62 78.418 23.7334 77.8447 22.6C77.2847 21.4534 77.0047 20.1334 77.0047 18.64C77.0047 17.1067 77.298 15.76 77.8847 14.6C78.4847 13.44 79.318 12.5467 80.3847 11.92C81.4513 11.28 82.678 10.96 84.0647 10.96C85.1713 10.96 86.1647 11.1667 87.0447 11.58C87.9247 11.98 88.638 12.5134 89.1847 13.18C89.7313 13.8334 90.0847 14.5267 90.2447 15.26L90.2847 15.58C90.2847 15.7 90.258 15.78 90.2047 15.82C90.1647 15.86 90.0913 15.8867 89.9847 15.9L86.9447 16.36C86.8113 16.36 86.7247 16.34 86.6847 16.3C86.6447 16.2467 86.6047 16.1467 86.5647 16C86.458 15.3467 86.1847 14.8067 85.7447 14.38C85.3047 13.9534 84.718 13.74 83.9847 13.74C83.078 13.74 82.3913 14.1134 81.9247 14.86C81.458 15.6067 81.2247 16.8267 81.2247 18.52C81.2247 20.2934 81.4713 21.5534 81.9647 22.3C82.458 23.0334 83.178 23.4 84.1247 23.4C84.7913 23.4 85.3313 23.24 85.7447 22.92C86.158 22.5867 86.4513 22.14 86.6247 21.58L86.6647 21.2C86.6913 21.12 86.7047 21.0667 86.7047 21.04C86.7047 20.9334 86.6313 20.88 86.4847 20.88H84.3447C84.2113 20.88 84.118 20.8534 84.0647 20.8C84.0113 20.7467 83.9847 20.64 83.9847 20.48V18.76C83.9847 18.56 84.1113 18.46 84.3647 18.46L89.8447 18.5C90.058 18.5 90.218 18.5534 90.3247 18.66C90.4447 18.7534 90.5047 18.88 90.5047 19.04V25.68C90.5047 25.7734 90.4713 25.8534 90.4047 25.92C90.3513 25.9734 90.278 26 90.1847 26H89.4847C89.2313 26 89.038 25.88 88.9047 25.64L88.2047 24.36C88.178 24.3067 88.1447 24.2867 88.1047 24.3C88.078 24.3 88.0447 24.3267 88.0047 24.38C87.498 24.9267 86.938 25.3667 86.3247 25.7C85.7113 26.0334 84.8847 26.2 83.8447 26.2Z" fill="#242424"/>
<path d="M105.681 16.2C104.255 16.2 103.008 15.8934 101.941 15.28C100.888 14.6667 100.075 13.7934 99.5014 12.66C98.9281 11.5134 98.6414 10.1667 98.6414 8.62002C98.6414 7.07336 98.9281 5.72669 99.5014 4.58002C100.088 3.42002 100.908 2.52669 101.961 1.90002C103.028 1.27336 104.268 0.960022 105.681 0.960022C107.081 0.960022 108.308 1.27336 109.361 1.90002C110.428 2.52669 111.248 3.42002 111.821 4.58002C112.408 5.72669 112.701 7.07336 112.701 8.62002C112.701 10.1534 112.415 11.4934 111.841 12.64C111.268 13.7734 110.448 14.6534 109.381 15.28C108.328 15.8934 107.095 16.2 105.681 16.2ZM105.701 13.4C106.675 13.4 107.375 13.0334 107.801 12.3C108.241 11.5667 108.461 10.36 108.461 8.68002C108.461 6.94669 108.235 5.69336 107.781 4.92002C107.341 4.13336 106.641 3.74002 105.681 3.74002C104.708 3.74002 103.995 4.13336 103.541 4.92002C103.101 5.69336 102.881 6.94669 102.881 8.68002C102.881 10.36 103.101 11.5667 103.541 12.3C103.981 13.0334 104.701 13.4 105.701 13.4Z" fill="#242424"/>
<path d="M13.7759 0C16.9783 0 20.0496 1.27215 22.314 3.5366C24.5785 5.80104 25.8506 8.87229 25.8506 12.0747C25.8506 21.3083 18.0376 29.1213 13.7759 29.1213C9.51427 29.1213 1.70123 21.3083 1.70123 12.0747C1.70123 8.87229 2.97338 5.80104 5.23783 3.5366C7.50227 1.27215 10.5735 0 13.7759 0ZM13.7759 2.8411C11.327 2.8411 8.97843 3.81393 7.24679 5.54556C5.51516 7.27719 4.54234 9.62579 4.54234 12.0747C4.54234 18.8848 10.4589 26.2802 13.7759 26.2802C17.0929 26.2802 23.0095 18.8848 23.0095 12.0747C23.0095 9.62579 22.0367 7.27719 20.3051 5.54556C18.5734 3.81393 16.2248 2.8411 13.7759 2.8411ZM21.589 12.785C21.8163 12.785 22.0421 12.7963 22.2637 12.8205C22.3644 13.7686 22.2517 14.7272 21.9339 15.6261C21.6162 16.525 21.1013 17.3415 20.4271 18.0156C19.753 18.6898 18.9365 19.2046 18.0376 19.5224C17.1387 19.8402 16.1801 19.9529 15.232 19.8522C15.1374 18.9608 15.2313 18.0595 15.5076 17.2067C15.784 16.354 16.2366 15.5689 16.8361 14.9024C17.4356 14.236 18.1685 13.703 18.9873 13.3382C19.8062 12.9734 20.6926 12.7849 21.589 12.785ZM5.96289 12.785C6.8593 12.7849 7.74569 12.9734 8.56452 13.3382C9.38334 13.703 10.1163 14.236 10.7158 14.9024C11.3153 15.5689 11.7679 16.354 12.0442 17.2067C12.3206 18.0595 12.4145 18.9608 12.3199 19.8522C11.3718 19.9529 10.4132 19.8402 9.51424 19.5224C8.61533 19.2046 7.79888 18.6898 7.12471 18.0156C6.45053 17.3415 5.9357 16.525 5.61792 15.6261C5.30014 14.7272 5.18745 13.7686 5.28813 12.8205C5.50831 12.7963 5.7356 12.785 5.96289 12.785Z" fill="url(#paint0_linear)"/>
<defs>
<linearGradient id="paint0_linear" x1="5.25261" y1="-2.85205e-07" x2="25.8506" y2="29.1213" gradientUnits="userSpaceOnUse">
<stop stop-color="#2EC73D"/>
<stop offset="0.515625" stop-color="#7C64C2"/>
<stop offset="1" stop-color="#B31DB6"/>
</linearGradient>
</defs>
</svg>
